<?xml version="1.0" encoding="UTF-8"?>
<svg width="24" height="24" viewBox="0 0 24 24" fill="none" xmlns="http://www.w3.org/2000/svg">
  <path d="M16 11V7C16 5.93913 15.5786 4.92172 14.8284 4.17157C14.0783 3.42143 13.0609 3 12 3C10.9391 3 9.92172 3.42143 9.17157 4.17157C8.42143 4.92172 8 5.93913 8 7V11M5 9H19L20 21H4L5 9Z" stroke="#2f3e9c" stroke-width="2" stroke-linecap="round" stroke-linejoin="round"/>
  <path d="M12 16C12.5523 16 13 15.5523 13 15C13 14.4477 12.5523 14 12 14C11.4477 14 11 14.4477 11 15C11 15.5523 11.4477 16 12 16Z" fill="#2f3e9c" stroke="#2f3e9c" stroke-width="2" stroke-linecap="round" stroke-linejoin="round"/>
</svg>